<svg width="30" height="12" viewBox="0 0 30 12" fill="none" xmlns="http://www.w3.org/2000/svg">
<path d="M1.176 11.196C0.792 11.196 0.6 11.072 0.6 10.824C0.6 10.648 0.652 10.52 0.756 10.44C0.732 10.52 0.72 10.6 0.72 10.68C0.72 10.912 0.88 11.028 1.2 11.028C1.744 11.028 2.38 10.756 3.108 10.212C2.94 10.124 2.796 10.028 2.676 9.924C2.004 10.452 1.512 10.716 1.2 10.716C1.08 10.716 1.02 10.68 1.02 10.608C1.02 10.552 1.052 10.524 1.116 10.524C1.132 10.524 1.156 10.528 1.188 10.536C1.212 10.544 1.232 10.548 1.248 10.548C1.552 10.548 2 10.316 2.592 9.852C2.328 9.596 2.196 9.336 2.196 9.072C2.196 8.512 2.712 8.012 3.744 7.572C3.952 7.484 4.18 7.408 4.428 7.344C4.684 7.272 4.96 7.208 5.256 7.152C5.36 7.016 5.456 6.888 5.544 6.768C5.632 6.64 5.708 6.52 5.772 6.408C5.748 6.2 5.736 6.028 5.736 5.892C5.736 5.388 5.828 5.136 6.012 5.136C6.124 5.136 6.212 5.264 6.276 5.52C6.356 5.408 6.452 5.252 6.564 5.052C6.676 4.844 6.8 4.592 6.936 4.296C7.144 3.864 7.34 3.42 7.524 2.964C7.708 2.508 7.88 2.04 8.04 1.56C8.072 1.472 8.108 1.408 8.148 1.368C8.156 1.376 8.16 1.392 8.16 1.416C8.16 2.024 7.604 3.364 6.492 5.436C6.604 5.38 6.692 5.352 6.756 5.352C6.804 5.352 6.828 5.38 6.828 5.436C6.828 5.644 6.508 5.996 5.868 6.492C5.812 6.588 5.744 6.692 5.664 6.804C5.592 6.908 5.512 7.016 5.424 7.128C5.6 7.096 5.8 7.072 6.024 7.056C6.344 6.608 6.652 6.144 6.948 5.664C7.244 5.184 7.528 4.688 7.8 4.176C8.504 2.864 8.856 1.88 8.856 1.224C8.856 0.84 8.684 0.62 8.34 0.564C8.268 0.548 8.232 0.523999 8.232 0.491999C8.232 0.444 8.276 0.42 8.364 0.42C8.676 0.42 8.916 0.52 9.084 0.719999C9.252 0.912 9.336 1.164 9.336 1.476C9.336 2.172 9.004 3.128 8.34 4.344C8.092 4.8 7.82 5.252 7.524 5.7C7.228 6.14 6.916 6.576 6.588 7.008C6.724 6.992 6.916 6.98 7.164 6.972C7.412 6.956 7.708 6.94 8.052 6.924C8.284 6.916 8.452 6.912 8.556 6.912C8.66 6.904 8.708 6.9 8.7 6.9C8.748 6.9 8.772 6.912 8.772 6.936C8.772 7.016 8.692 7.064 8.532 7.08C8.38 7.088 8.152 7.104 7.848 7.128C7.552 7.144 7.28 7.164 7.032 7.188C6.792 7.204 6.58 7.224 6.396 7.248C5.372 8.528 4.392 9.516 3.456 10.212C3.664 10.316 4.04 10.416 4.584 10.512C4.656 10.52 4.692 10.544 4.692 10.584C4.692 10.624 4.652 10.644 4.572 10.644C4.22 10.644 3.804 10.532 3.324 10.308C2.492 10.9 1.776 11.196 1.176 11.196ZM10.68 10.416C10.384 10.416 10.076 10.288 9.756 10.032C9.444 9.776 9.22 9.496 9.084 9.192C8.908 8.808 8.82 8.256 8.82 7.536C8.82 7.32 8.852 6.932 8.916 6.372C8.98 5.804 9.052 5.068 9.132 4.164L9.24 2.952C9.248 2.8 9.276 2.724 9.324 2.724C9.412 2.724 9.456 2.812 9.456 2.988V5.004C9.456 7.204 9.636 8.72 9.996 9.552C10.212 10.048 10.464 10.296 10.752 10.296C11.128 10.296 11.544 9.932 12 9.204C11.992 9.356 11.904 9.544 11.736 9.768C11.56 10.008 11.404 10.168 11.268 10.248C11.068 10.36 10.872 10.416 10.68 10.416ZM3.252 10.104C4.052 9.464 4.904 8.544 5.808 7.344C5.688 7.368 5.568 7.396 5.448 7.428C5.336 7.452 5.224 7.48 5.112 7.512C4.424 8.336 3.68 9.084 2.88 9.756C2.92 9.82 2.972 9.88 3.036 9.936C3.1 9.992 3.172 10.048 3.252 10.104ZM2.82 9.672C3.18 9.376 3.532 9.052 3.876 8.7C4.228 8.348 4.576 7.972 4.92 7.572C4.4 7.74 3.948 7.956 3.564 8.22C3.02 8.58 2.748 8.952 2.748 9.336C2.748 9.448 2.772 9.56 2.82 9.672ZM10.8987 9.132C10.8267 9.132 10.7907 9.08 10.7907 8.976V8.952C10.8227 8.84 10.8547 8.7 10.8867 8.532C10.9267 8.364 10.9707 8.168 11.0187 7.944C11.0667 7.72 11.1267 7.44 11.1987 7.104C11.2707 6.76 11.3587 6.364 11.4627 5.916L11.3187 5.568C11.2787 5.464 11.2467 5.388 11.2227 5.34C11.2067 5.292 11.1987 5.268 11.1987 5.268C11.1987 5.212 11.2667 5.16 11.4027 5.112C11.8027 4.96 12.0587 4.884 12.1707 4.884C12.2907 4.884 12.3507 4.92 12.3507 4.992C12.3427 4.968 12.1387 5.48 11.7387 6.528V6.636C11.7387 6.86 11.7027 6.972 11.6307 6.972C11.6227 6.972 11.6107 6.96 11.5947 6.936C11.5307 7.136 11.4667 7.328 11.4027 7.512C11.3467 7.688 11.2947 7.864 11.2467 8.04C11.4227 7.752 11.6027 7.476 11.7867 7.212C11.9787 6.948 12.1747 6.7 12.3747 6.468C12.9747 5.772 13.4707 5.424 13.8627 5.424C14.0467 5.424 14.1387 5.496 14.1387 5.64C14.1387 5.688 14.1267 5.748 14.1027 5.82C14.0387 6.092 13.9507 6.436 13.8387 6.852C13.7267 7.26 13.5947 7.736 13.4427 8.28C13.9067 7.936 14.2667 7.568 14.5227 7.176C14.5627 7.128 14.5907 7.104 14.6067 7.104C14.6307 7.104 14.6427 7.12 14.6427 7.152C14.6427 7.168 14.6307 7.196 14.6067 7.236C14.2547 7.86 13.8267 8.356 13.3227 8.724C13.2907 8.772 13.2387 8.796 13.1667 8.796C13.1107 8.796 13.0827 8.764 13.0827 8.7C13.0827 8.684 13.0947 8.612 13.1187 8.484C13.1427 8.348 13.1747 8.16 13.2147 7.92C13.2547 7.744 13.2907 7.572 13.3227 7.404C13.3547 7.236 13.3867 7.064 13.4187 6.888C13.4747 6.496 13.5107 6.152 13.5267 5.856C13.3507 5.936 13.1587 6.068 12.9507 6.252C12.7507 6.428 12.5267 6.652 12.2787 6.924C12.0547 7.172 11.8587 7.408 11.6907 7.632C11.5307 7.848 11.3987 8.052 11.2947 8.244C11.1827 8.46 11.0987 8.692 11.0427 8.94C11.0107 9.068 10.9627 9.132 10.8987 9.132ZM11.5347 5.592L11.6427 5.196C11.6027 5.228 11.5267 5.268 11.4147 5.316L11.5347 5.592ZM17.577 9.084C17.113 9.084 16.881 8.748 16.881 8.076C16.881 7.748 16.953 7.26 17.097 6.612C16.761 7.268 16.493 7.728 16.293 7.992C15.869 8.584 15.473 8.88 15.105 8.88C14.729 8.88 14.541 8.632 14.541 8.136C14.541 7.376 14.945 6.568 15.753 5.712C16.561 4.856 17.353 4.384 18.129 4.296C18.305 3.872 18.477 3.468 18.645 3.084C18.813 2.7 18.973 2.336 19.125 1.992C19.189 1.856 19.261 1.7 19.341 1.524C19.429 1.348 19.525 1.152 19.629 0.935999C19.765 0.751999 19.981 0.659999 20.277 0.659999C20.389 0.659999 20.445 0.687999 20.445 0.744C20.445 0.744 20.437 0.76 20.421 0.792C20.357 0.92 20.269 1.084 20.157 1.284C20.053 1.484 19.933 1.712 19.797 1.968C19.581 2.384 19.369 2.796 19.161 3.204C18.961 3.604 18.769 3.992 18.585 4.368C18.681 4.392 18.729 4.464 18.729 4.584C18.729 4.744 18.629 4.984 18.429 5.304C18.237 5.624 18.077 5.832 17.949 5.928C17.869 6.08 17.797 6.256 17.733 6.456C17.669 6.656 17.605 6.872 17.541 7.104C17.485 7.336 17.441 7.552 17.409 7.752C17.385 7.952 17.373 8.132 17.373 8.292C17.373 8.684 17.477 8.88 17.685 8.88C17.925 8.88 18.217 8.664 18.561 8.232C18.673 8.096 18.889 7.772 19.209 7.26C19.249 7.212 19.277 7.188 19.293 7.188C19.317 7.188 19.329 7.2 19.329 7.224C19.329 7.224 19.321 7.248 19.305 7.296C18.689 8.488 18.113 9.084 17.577 9.084ZM15.165 8.436C15.749 8.436 16.321 7.784 16.881 6.48C16.729 6.528 16.605 6.552 16.509 6.552C16.477 6.552 16.461 6.536 16.461 6.504C16.461 6.456 16.517 6.416 16.629 6.384C16.741 6.344 16.873 6.272 17.025 6.168C17.057 6.088 17.089 6 17.121 5.904C17.161 5.8 17.197 5.688 17.229 5.568C17.253 5.504 17.281 5.472 17.313 5.472C17.369 5.472 17.397 5.508 17.397 5.58C17.397 5.652 17.361 5.784 17.289 5.976L17.505 5.82L18.009 4.572C17.417 4.7 16.745 5.136 15.993 5.88C15.225 6.656 14.841 7.332 14.841 7.908C14.841 8.26 14.949 8.436 15.165 8.436ZM19.6301 9.036C19.5741 9.036 19.5021 9.012 19.4141 8.964C19.3261 8.908 19.2821 8.856 19.2821 8.808L19.4261 8.484C19.5621 8.172 19.6901 7.868 19.8101 7.572C19.9381 7.268 20.0421 6.964 20.1221 6.66C20.2021 6.388 20.2421 6.052 20.2421 5.652C20.2181 5.732 20.1661 5.848 20.0861 6C20.0061 6.152 19.8981 6.344 19.7621 6.576C19.6341 6.8 19.5181 6.988 19.4141 7.14C19.3181 7.284 19.2381 7.4 19.1741 7.488C19.1741 7.496 19.1661 7.5 19.1501 7.5C19.1101 7.5 19.0901 7.484 19.0901 7.452C19.0901 7.436 19.0941 7.424 19.1021 7.416L19.4741 6.828C19.6901 6.484 19.8621 6.172 19.9901 5.892C20.1181 5.604 20.2101 5.352 20.2661 5.136C20.3141 4.928 20.3941 4.824 20.5061 4.824C20.6341 4.824 20.6981 4.984 20.6981 5.304C20.6981 5.88 20.5141 6.588 20.1461 7.428C20.5781 6.884 20.8781 6.524 21.0461 6.348C21.5021 5.86 21.8581 5.616 22.1141 5.616C22.3701 5.616 22.4981 5.784 22.4981 6.12C22.4981 6.352 22.4341 6.556 22.3061 6.732C22.1541 6.956 22.0141 7.068 21.8861 7.068C21.8621 7.068 21.8501 7.052 21.8501 7.02C21.8501 7.02 21.8941 6.92 21.9821 6.72C22.0701 6.52 22.1141 6.348 22.1141 6.204C22.1141 5.988 22.0461 5.88 21.9101 5.88C21.7021 5.88 21.3901 6.124 20.9741 6.612C20.7981 6.812 20.6461 7 20.5181 7.176C20.3901 7.344 20.2861 7.496 20.2061 7.632C20.1981 7.656 20.1581 7.752 20.0861 7.92C20.0141 8.088 19.9221 8.336 19.8101 8.664L19.6901 9.012C19.6741 9.028 19.6541 9.036 19.6301 9.036ZM23.6537 9.108C23.0857 9.108 22.8017 8.74 22.8017 8.004C22.8017 7.892 22.8057 7.772 22.8137 7.644C22.8297 7.508 22.8537 7.364 22.8857 7.212C22.8537 7.188 22.8217 7.156 22.7897 7.116C22.7577 7.068 22.7257 7.012 22.6937 6.948C22.7257 6.956 22.7577 6.972 22.7897 6.996C22.8297 7.012 22.8777 7.028 22.9337 7.044C23.0217 6.644 23.2617 6.248 23.6537 5.856C24.0777 5.424 24.4777 5.208 24.8537 5.208C24.9417 5.208 24.9857 5.22 24.9857 5.244C24.9857 5.26 24.9297 5.3 24.8177 5.364C24.5217 5.524 24.2417 5.772 23.9777 6.108C23.7137 6.452 23.5217 6.788 23.4017 7.116L23.4257 7.14C23.8097 7.14 24.2097 6.956 24.6257 6.588C25.0417 6.22 25.2497 5.844 25.2497 5.46C25.2497 5.34 25.2177 5.232 25.1537 5.136C25.0897 5.04 25.0017 4.992 24.8897 4.992C24.7297 4.992 24.5497 5.056 24.3497 5.184C24.1497 5.304 24.0377 5.364 24.0137 5.364C23.9977 5.364 23.9897 5.36 23.9897 5.352C23.9897 5.256 24.1297 5.152 24.4097 5.04C24.6497 4.944 24.8377 4.896 24.9737 4.896C25.1577 4.896 25.3097 4.948 25.4297 5.052C25.5577 5.156 25.6217 5.3 25.6217 5.484C25.6217 5.908 25.3457 6.32 24.7937 6.72C24.2977 7.072 23.8177 7.268 23.3537 7.308C23.2897 7.5 23.2577 7.684 23.2577 7.86C23.2577 8.524 23.4977 8.856 23.9777 8.856C24.3457 8.856 24.7297 8.696 25.1297 8.376C25.4657 8.112 25.7457 7.792 25.9697 7.416C26.0417 7.304 26.1017 7.248 26.1497 7.248C26.1577 7.248 26.1617 7.256 26.1617 7.272C26.1617 7.304 26.1297 7.376 26.0657 7.488C25.8177 7.88 25.4697 8.24 25.0217 8.568C24.5337 8.928 24.0777 9.108 23.6537 9.108ZM24.2897 4.068C24.2497 4.068 24.2297 4.056 24.2297 4.032C24.2297 4.016 24.2937 3.964 24.4217 3.876C24.5577 3.788 24.6737 3.716 24.7697 3.66C24.8337 3.62 24.9257 3.568 25.0457 3.504C25.1657 3.432 25.2897 3.356 25.4177 3.276C25.5537 3.196 25.6737 3.132 25.7777 3.084C25.8817 3.028 25.9497 3 25.9817 3C26.0297 3 26.0657 3.02 26.0897 3.06C26.1137 3.1 26.1257 3.14 26.1257 3.18C26.1257 3.236 26.1097 3.292 26.0777 3.348C26.0537 3.396 26.0097 3.432 25.9457 3.456C25.8897 3.472 25.8257 3.492 25.7537 3.516C25.6817 3.532 25.6177 3.552 25.5617 3.576C25.4417 3.624 25.3297 3.668 25.2257 3.708C25.1297 3.748 25.0217 3.792 24.9017 3.84C24.7577 3.904 24.6297 3.96 24.5177 4.008C24.4137 4.048 24.3377 4.068 24.2897 4.068ZM27.3848 9.024C27.0088 9.024 26.6688 8.868 26.3647 8.556C26.0687 8.236 25.9207 7.888 25.9207 7.512C25.9207 7.264 25.9847 7.14 26.1128 7.14C26.1928 7.14 26.2728 7.2 26.3528 7.32C26.5928 6.76 26.9328 6.128 27.3728 5.424C27.6528 4.992 27.9808 4.776 28.3568 4.776C28.4368 4.776 28.5288 4.804 28.6328 4.86C28.7448 4.916 28.8008 4.984 28.8008 5.064C28.8008 5.12 28.7488 5.148 28.6448 5.148C28.6368 5.148 28.6248 5.148 28.6088 5.148C28.5928 5.148 28.5728 5.144 28.5488 5.136H28.4528C28.2768 5.136 28.1208 5.188 27.9848 5.292C27.8488 5.396 27.7808 5.536 27.7808 5.712C27.7808 5.776 27.7928 5.844 27.8168 5.916L28.1048 6.876C28.1688 7.068 28.2128 7.248 28.2368 7.416C28.2608 7.576 28.2728 7.724 28.2728 7.86C28.4888 7.828 28.6728 7.748 28.8248 7.62C28.9208 7.54 29.0488 7.38 29.2088 7.14C29.2328 7.108 29.2568 7.092 29.2808 7.092C29.3048 7.092 29.3168 7.108 29.3168 7.14C29.3168 7.148 29.3088 7.176 29.2928 7.224C29.0208 7.68 28.6848 7.948 28.2848 8.028C28.2608 8.308 28.1768 8.54 28.0328 8.724C27.8808 8.924 27.6648 9.024 27.3848 9.024ZM27.7808 8.016C27.7888 7.984 27.7928 7.956 27.7928 7.932C27.7928 7.908 27.7928 7.88 27.7928 7.848C27.7928 7.744 27.7728 7.604 27.7327 7.428C27.7008 7.244 27.6528 7.02 27.5888 6.756C27.4688 6.252 27.4248 5.916 27.4568 5.748C27.2488 5.964 26.9088 6.54 26.4368 7.476C26.5888 7.556 26.7168 7.628 26.8208 7.692C26.9328 7.748 27.0208 7.792 27.0848 7.824C27.2128 7.88 27.3328 7.924 27.4448 7.956C27.5648 7.988 27.6768 8.008 27.7808 8.016ZM27.1328 8.628C27.4528 8.628 27.6648 8.472 27.7688 8.16C27.1288 8.16 26.6408 8.028 26.3048 7.764C26.3208 7.94 26.4168 8.132 26.5928 8.34C26.7768 8.532 26.9568 8.628 27.1328 8.628Z" fill="#F5F5F5"/>
</svg>
